<?xml version="1.0" standalone="no"?>
<!DOCTYPE svg PUBLIC "-//W3C//DTD SVG 20010904//EN"
 "http://www.w3.org/TR/2001/REC-SVG-20010904/DTD/svg10.dtd">
<svg version="1.0" xmlns="http://www.w3.org/2000/svg"
 width="96.000000pt" height="96.000000pt" viewBox="0 0 96.000000 96.000000"
 preserveAspectRatio="xMidYMid meet">

<g transform="translate(0.000000,96.000000) scale(0.100000,-0.100000)"
fill="#000000" stroke="none">
<path d="M140 834 c-43 -16 -61 -30 -75 -60 -20 -42 -11 -77 27 -109 25 -21
39 -25 100 -25 64 0 72 2 100 30 16 17 34 30 40 30 6 0 26 -13 45 -30 30 -27
40 -30 103 -30 63 0 73 3 103 30 19 17 39 30 45 30 6 0 24 -13 40 -30 28 -28
36 -30 105 -30 64 0 77 3 100 24 37 35 44 72 21 115 -37 70 -172 82 -226 21
-34 -37 -46 -38 -81 -1 -50 53 -168 53 -218 0 -34 -36 -43 -36 -77 2 -22 25
-36 31 -82 34 -30 3 -62 2 -70 -1z m138 -36 c7 -7 12 -16 12 -20 0 -12 -38
-10 -45 2 -10 16 -98 12 -123 -6 -25 -17 -29 -56 -8 -73 23 -20 85 -25 127
-11 44 15 64 6 35 -16 -31 -22 -148 -19 -177 5 -29 23 -31 81 -4 111 15 17 30
20 95 20 46 0 81 -5 88 -12z m292 -3 c18 -22 5 -30 -25 -17 -14 7 -44 12 -65
12 -21 0 -51 -5 -65 -12 -30 -13 -43 -5 -25 17 9 11 33 15 90 15 57 0 81 -4
90 -15z m295 -5 c26 -29 23 -89 -5 -112 -28 -23 -146 -25 -176 -4 -29 22 -9
31 35 16 42 -14 104 -9 127 11 21 17 17 56 -8 73 -26 19 -96 21 -133 4 -30
-13 -43 -5 -25 17 9 11 33 15 90 15 65 0 80 -3 95 -20z m-647 -50 c-1 -29 -3
-30 -50 -30 -44 0 -48 2 -48 23 0 32 7 37 56 37 41 0 43 -1 42 -30z m297 0 c0
-28 -3 -30 -35 -30 -32 0 -35 3 -36 30 -1 28 1 30 35 30 33 0 36 -2 36 -30z
m309 24 c9 -3 16 -17 16 -30 0 -22 -4 -24 -50 -24 -49 0 -50 1 -50 30 0 27 3
30 34 30 19 0 41 -3 50 -6z m-394 -29 c0 -12 -17 -15 -95 -15 -78 0 -95 3 -95
15 0 12 17 15 95 15 78 0 95 -3 95 -15z m293 0 c1 -6 -37 -11 -95 -13 -84 -2
-98 0 -98 13 0 13 14 15 95 13 53 -2 96 -7 98 -13z m-262 -52 c20 -3 53 0 74
7 42 14 59 5 31 -16 -23 -17 -138 -19 -167 -4 -27 15 -24 34 4 26 12 -4 38
-10 58 -13z"/>
<path d="M255 568 c-11 -6 -29 -21 -40 -34 -16 -19 -32 -24 -80 -26 -57 -3
-60 -4 -60 -28 0 -24 3 -25 63 -28 52 -2 65 -7 78 -26 22 -35 65 -49 135 -44
54 4 66 9 90 36 16 18 33 32 38 32 5 0 25 -16 44 -35 33 -33 39 -35 102 -35
63 0 69 2 102 35 30 30 41 34 96 37 59 3 62 4 62 28 0 24 -3 25 -67 28 -56 2
-68 6 -73 23 -10 30 -58 49 -126 49 -56 0 -64 -3 -96 -35 -19 -19 -39 -35 -43
-35 -4 0 -24 16 -43 35 -33 33 -39 35 -99 35 -34 0 -72 -6 -83 -12z m166 -27
c29 -24 18 -38 -16 -23 -34 16 -120 15 -145 0 -29 -18 -39 1 -11 23 33 27 139
27 172 0z m290 0 c28 -22 18 -41 -11 -23 -25 15 -111 16 -145 0 -34 -15 -45
-1 -16 23 33 27 139 27 172 0z m-344 -61 c0 -27 -3 -30 -34 -30 -30 0 -33 3
-33 30 0 27 3 30 33 30 31 0 34 -3 34 -30z m290 0 c0 -27 -3 -30 -32 -30 -29
0 -32 3 -32 30 0 27 3 30 32 30 29 0 32 -3 32 -30z m-367 0 c0 -6 -40 -10
-100 -10 -60 0 -100 4 -100 10 0 6 40 10 100 10 60 0 100 -4 100 -10z m290 0
c0 -6 -40 -10 -100 -10 -60 0 -100 4 -100 10 0 6 40 10 100 10 60 0 100 -4
100 -10z m290 0 c0 -6 -40 -10 -100 -10 -60 0 -100 4 -100 10 0 6 40 10 100
10 60 0 100 -4 100 -10z m-605 -40 c9 -14 108 -13 140 2 34 15 45 1 16 -23
-44 -36 -191 -19 -191 22 0 12 27 12 35 -1z m348 -7 c27 -3 61 0 78 7 38 16
51 4 20 -21 -45 -36 -191 -19 -191 23 0 6 9 7 23 3 12 -4 44 -10 70 -12z"/>
<path d="M85 296 c-47 -47 -43 -112 9 -150 22 -17 42 -21 98 -20 67 0 72 2 99
32 16 18 34 32 40 32 6 0 24 -13 40 -29 53 -53 166 -53 216 0 35 36 48 36 79
0 28 -33 81 -47 143 -36 88 15 122 106 62 166 -27 27 -35 29 -101 29 -66 0
-74 -2 -102 -30 -16 -16 -34 -30 -40 -30 -6 0 -26 14 -45 30 -30 27 -40 30
-103 30 -63 0 -73 -3 -103 -30 -19 -16 -39 -30 -45 -30 -6 0 -24 14 -40 30
-29 28 -35 30 -107 30 -67 0 -79 -3 -100 -24z m191 -10 c29 -22 9 -31 -35 -16
-42 14 -104 9 -127 -11 -21 -17 -17 -56 8 -73 26 -19 96 -21 133 -4 31 14 47
1 21 -18 -13 -9 -45 -14 -91 -14 -60 0 -75 3 -90 20 -27 30 -25 88 4 111 29
24 146 27 177 5z m290 0 c29 -22 12 -28 -40 -14 -37 10 -55 10 -92 0 -52 -14
-69 -8 -40 14 26 19 146 19 172 0z m303 -12 c12 -15 21 -37 21 -49 0 -12 -9
-34 -21 -49 -19 -24 -26 -26 -99 -26 -57 0 -81 4 -90 15 -18 22 -5 30 25 17
37 -17 107 -15 133 4 25 17 29 56 8 73 -23 20 -85 25 -127 11 -44 -15 -64 -6
-35 16 13 9 46 14 92 14 66 0 74 -2 93 -26z m-651 -55 c1 -30 0 -30 -46 -27
-43 3 -47 5 -50 31 -3 26 -2 27 46 27 48 0 49 -1 50 -31z m297 1 c0 -28 -3
-30 -36 -30 -34 0 -36 2 -35 30 1 27 4 30 36 30 32 0 35 -2 35 -30z m325 6 c0
-27 -16 -36 -66 -36 -31 0 -34 3 -34 30 0 29 1 30 50 30 46 0 50 -2 50 -24z
m-410 -1 c0 -12 -17 -15 -95 -15 -78 0 -95 3 -95 15 0 12 17 15 95 15 78 0 95
-3 95 -15z m293 0 c1 -6 -37 -11 -95 -13 -84 -2 -98 0 -98 13 0 13 14 15 95
13 53 -2 96 -7 98 -13z m-255 -52 c24 -3 56 0 73 7 34 15 48 8 29 -15 -16 -19
-159 -22 -178 -3 -19 19 -14 31 11 23 12 -4 41 -10 65 -12z"/>
</g>
</svg>
