<?xml version="1.0" standalone="no"?>
<!DOCTYPE svg PUBLIC "-//W3C//DTD SVG 20010904//EN"
 "http://www.w3.org/TR/2001/REC-SVG-20010904/DTD/svg10.dtd">
<svg version="1.0" xmlns="http://www.w3.org/2000/svg"
 width="96.000000pt" height="96.000000pt" viewBox="0 0 96.000000 96.000000"
 preserveAspectRatio="xMidYMid meet">

<g transform="translate(0.000000,96.000000) scale(0.100000,-0.100000)"
fill="#000000" stroke="none">
<path d="M454 896 c-3 -9 -4 -23 0 -31 3 -9 -6 -29 -23 -47 l-28 -32 -46 29
c-26 17 -47 39 -49 50 -4 25 -45 33 -54 10 -4 -9 -2 -26 4 -38 6 -12 14 -65
18 -117 7 -111 13 -126 54 -135 28 -6 30 -9 30 -53 0 -60 -36 -136 -85 -182
-48 -46 -67 -83 -64 -128 2 -21 -3 -47 -9 -59 -18 -32 -14 -71 8 -93 19 -19
33 -20 270 -20 237 0 251 1 270 20 22 22 26 61 8 93 -6 12 -11 38 -9 59 3 45
-16 82 -64 128 -49 46 -85 122 -85 182 0 44 2 47 30 53 41 9 47 24 54 135 4
52 12 105 18 117 6 12 8 29 4 38 -9 23 -50 15 -54 -10 -2 -11 -23 -33 -48 -49
l-46 -29 -25 26 c-17 16 -26 37 -27 59 -1 26 -6 34 -24 36 -13 2 -25 -3 -28
-12z m58 -136 c26 -36 39 -37 85 -9 19 12 36 19 39 17 2 -3 1 -32 -2 -66 l-7
-62 -147 0 -147 0 -7 62 c-3 34 -4 63 -2 66 3 2 20 -5 39 -17 46 -28 59 -27
85 9 13 17 27 30 32 30 5 0 19 -13 32 -30z m39 -240 c8 -76 37 -135 97 -201
39 -43 52 -64 52 -88 l0 -31 -220 0 -220 0 0 31 c0 23 13 46 55 91 59 66 95
144 95 207 0 21 3 41 7 45 4 4 34 6 68 4 l60 -3 6 -55z m153 -376 c9 -3 16
-15 16 -25 0 -18 -11 -19 -240 -19 -230 0 -240 1 -240 19 0 11 6 22 13 24 18
8 432 8 451 1z"/>
</g>
</svg>
