<?xml version="1.0" standalone="no"?>
<!DOCTYPE svg PUBLIC "-//W3C//DTD SVG 20010904//EN"
 "http://www.w3.org/TR/2001/REC-SVG-20010904/DTD/svg10.dtd">
<svg version="1.0" xmlns="http://www.w3.org/2000/svg"
 width="96.000000pt" height="96.000000pt" viewBox="0 0 96.000000 96.000000"
 preserveAspectRatio="xMidYMid meet">

<g transform="translate(0.000000,96.000000) scale(0.100000,-0.100000)"
fill="#000000" stroke="none">
<path d="M396 788 c-66 -83 -77 -110 -52 -125 20 -12 36 -48 36 -81 0 -72
-103 -110 -155 -57 -14 13 -25 33 -25 44 0 39 -14 53 -93 92 -116 59 -115 61
-56 -201 27 -118 49 -216 49 -217 0 -2 171 -3 379 -3 l379 0 27 118 c15 64 38
162 51 217 32 136 26 142 -87 84 -80 -42 -84 -46 -90 -83 -8 -50 -39 -76 -91
-76 -54 0 -88 34 -88 90 0 30 6 47 25 66 14 14 25 30 25 35 0 21 -133 179
-151 179 -10 0 -46 -36 -83 -82z m128 -384 c20 -20 20 -68 0 -88 -20 -20 -68
-20 -88 0 -20 20 -20 68 0 88 8 9 28 16 44 16 16 0 36 -7 44 -16z m-209 -44
c0 -33 -2 -35 -35 -35 -29 0 -36 4 -38 23 -6 40 5 54 40 50 30 -3 33 -6 33
-38z m400 0 c0 -33 -2 -35 -35 -35 -29 0 -36 4 -38 23 -6 40 5 54 40 50 30 -3
33 -6 33 -38z"/>
<path d="M85 175 c-14 -13 -25 -29 -25 -35 0 -6 11 -22 25 -35 l24 -25 371 0
371 0 24 25 c31 30 31 40 0 70 l-24 25 -371 0 -371 0 -24 -25z"/>
</g>
</svg>
