<svg version="1.1" id="Layer_1" xmlns="http://www.w3.org/2000/svg" xmlns:xlink="http://www.w3.org/1999/xlink" x="0px" y="0px"
	 width="100%" viewBox="0 0 100 100" enable-background="new 0 0 100 100" xml:space="preserve">
<path fill="#000000" opacity="1.000000" stroke="none" 
	d="
M61.000000,101.000000 
	C40.666672,101.000000 20.833340,101.000000 1.000008,101.000000 
	C1.000005,67.666679 1.000005,34.333351 1.000003,1.000021 
	C34.333317,1.000014 67.666634,1.000014 100.999969,1.000007 
	C100.999977,34.333313 100.999977,67.666626 100.999985,100.999969 
	C87.833336,101.000000 74.666664,101.000000 61.000000,101.000000 
M96.978920,59.995449 
	C96.476059,52.309608 97.164001,44.309151 95.233032,37.000629 
	C90.603821,19.479483 71.484116,4.377395 50.468040,4.591339 
	C30.755928,4.792008 11.391997,19.188215 6.662839,37.024036 
	C2.117198,54.167728 4.774197,70.013405 17.843525,83.540535 
	C29.868252,95.986473 44.703384,99.527519 60.483017,96.474358 
	C79.702003,92.755722 91.627869,79.857079 96.978920,59.995449 
z"/>
<path fill="#FFFFFF" opacity="1.000000" stroke="none" 
	d="
M96.829376,60.420364 
	C91.627869,79.857079 79.702003,92.755722 60.483017,96.474358 
	C44.703384,99.527519 29.868252,95.986473 17.843525,83.540535 
	C4.774197,70.013405 2.117198,54.167728 6.662839,37.024036 
	C11.391997,19.188215 30.755928,4.792008 50.468040,4.591339 
	C71.484116,4.377395 90.603821,19.479483 95.233032,37.000629 
	C97.164001,44.309151 96.476059,52.309608 96.829376,60.420364 
M64.905617,21.380314 
	C68.459038,24.648979 70.341049,28.522211 70.058357,33.524986 
	C69.787155,38.324200 70.233459,43.167316 69.894402,47.957874 
	C69.732628,50.243591 68.732506,52.580765 67.665596,54.666187 
	C65.978889,57.963051 63.170437,60.863270 62.225399,64.311897 
	C61.301590,67.683044 60.957767,71.735298 66.365005,73.194145 
	C70.800148,74.390732 74.839157,76.999382 79.224373,78.475067 
	C80.385307,78.865730 82.806709,77.819328 83.580650,76.696297 
	C91.839432,64.712334 95.021431,51.702404 89.958946,37.600815 
	C82.252853,16.135424 62.732670,6.042470 42.828468,10.463340 
	C10.942027,17.545555 0.522946,51.689903 18.436750,76.728302 
	C19.231880,77.839676 21.640133,78.848816 22.807301,78.454834 
	C27.191414,76.974976 31.233429,74.387062 35.666058,73.170517 
	C40.712227,71.785576 40.706341,68.081688 39.807739,64.765923 
	C38.864727,61.286270 36.153942,58.326057 34.736233,54.922058 
	C33.579697,52.145145 32.977650,49.080612 32.528656,46.083836 
	C32.176323,43.732224 32.801037,41.219185 32.358356,38.898685 
	C30.156992,27.359262 36.461330,16.954691 49.074425,16.803265 
	C54.819805,16.734291 59.377888,18.921473 64.905617,21.380314 
M54.048916,22.001141 
	C53.549583,22.000769 53.040966,22.063152 52.552277,21.990847 
	C40.363674,20.187466 34.767189,29.232645 37.906429,39.410213 
	C38.623981,41.736549 38.367767,44.379887 38.437172,46.880722 
	C38.462429,47.790741 37.699928,48.926891 38.033012,49.590214 
	C39.891624,53.291634 41.891384,56.929810 44.003056,60.494732 
	C47.150761,65.808678 45.040745,74.270729 39.491398,77.023369 
	C34.841785,79.329704 29.975681,81.199608 25.028540,83.339264 
	C42.412842,95.738358 61.596794,95.100502 76.869934,83.107452 
	C72.262665,81.281975 67.715378,79.729919 63.387581,77.708069 
	C56.588066,74.531494 54.591328,66.428406 58.575211,59.836178 
	C60.800583,56.153805 65.206886,51.507202 64.300400,48.686775 
	C62.379616,42.710506 66.885139,37.682671 64.917427,32.366074 
	C63.986832,29.851694 62.496555,27.367779 60.675083,25.415720 
	C59.218613,23.854826 56.877884,23.119034 54.048916,22.001141 
z"/>
<path fill="#000000" opacity="1.000000" stroke="none" 
	d="
M64.565582,21.201561 
	C59.377888,18.921473 54.819805,16.734291 49.074425,16.803265 
	C36.461330,16.954691 30.156992,27.359262 32.358356,38.898685 
	C32.801037,41.219185 32.176323,43.732224 32.528656,46.083836 
	C32.977650,49.080612 33.579697,52.145145 34.736233,54.922058 
	C36.153942,58.326057 38.864727,61.286270 39.807739,64.765923 
	C40.706341,68.081688 40.712227,71.785576 35.666058,73.170517 
	C31.233429,74.387062 27.191414,76.974976 22.807301,78.454834 
	C21.640133,78.848816 19.231880,77.839676 18.436750,76.728302 
	C0.522946,51.689903 10.942027,17.545555 42.828468,10.463340 
	C62.732670,6.042470 82.252853,16.135424 89.958946,37.600815 
	C95.021431,51.702404 91.839432,64.712334 83.580650,76.696297 
	C82.806709,77.819328 80.385307,78.865730 79.224373,78.475067 
	C74.839157,76.999382 70.800148,74.390732 66.365005,73.194145 
	C60.957767,71.735298 61.301590,67.683044 62.225399,64.311897 
	C63.170437,60.863270 65.978889,57.963051 67.665596,54.666187 
	C68.732506,52.580765 69.732628,50.243591 69.894402,47.957874 
	C70.233459,43.167316 69.787155,38.324200 70.058357,33.524986 
	C70.341049,28.522211 68.459038,24.648979 64.565582,21.201561 
z"/>
<path fill="#000000" opacity="1.000000" stroke="none" 
	d="
M54.489269,22.009087 
	C56.877884,23.119034 59.218613,23.854826 60.675083,25.415720 
	C62.496555,27.367779 63.986832,29.851694 64.917427,32.366074 
	C66.885139,37.682671 62.379616,42.710506 64.300400,48.686775 
	C65.206886,51.507202 60.800583,56.153805 58.575211,59.836178 
	C54.591328,66.428406 56.588066,74.531494 63.387581,77.708069 
	C67.715378,79.729919 72.262665,81.281975 76.869934,83.107452 
	C61.596794,95.100502 42.412842,95.738358 25.028540,83.339264 
	C29.975681,81.199608 34.841785,79.329704 39.491398,77.023369 
	C45.040745,74.270729 47.150761,65.808678 44.003056,60.494732 
	C41.891384,56.929810 39.891624,53.291634 38.033012,49.590214 
	C37.699928,48.926891 38.462429,47.790741 38.437172,46.880722 
	C38.367767,44.379887 38.623981,41.736549 37.906429,39.410213 
	C34.767189,29.232645 40.363674,20.187466 52.552277,21.990847 
	C53.040966,22.063152 53.549583,22.000769 54.489269,22.009087 
z"/>
</svg>