<?xml version="1.0" standalone="no"?>
<!DOCTYPE svg PUBLIC "-//W3C//DTD SVG 20010904//EN"
 "http://www.w3.org/TR/2001/REC-SVG-20010904/DTD/svg10.dtd">
<svg version="1.0" xmlns="http://www.w3.org/2000/svg"
 width="96.000000pt" height="96.000000pt" viewBox="0 0 96.000000 96.000000"
 preserveAspectRatio="xMidYMid meet">

<g transform="translate(0.000000,96.000000) scale(0.100000,-0.100000)"
fill="#000000" stroke="none">
<path d="M432 920 c-14 -14 -22 -33 -22 -55 l0 -35 -81 0 c-103 0 -144 -18
-170 -74 -17 -37 -19 -70 -19 -323 0 -264 -1 -283 -18 -283 -34 0 -62 -29 -62
-65 0 -67 -11 -65 420 -65 431 0 420 -2 420 65 0 36 -28 65 -62 65 -17 0 -18
19 -18 283 0 253 -2 286 -19 323 -26 56 -67 74 -170 74 l-81 0 0 35 c0 41 -32
75 -70 75 -14 0 -36 -9 -48 -20z m86 -12 c7 -7 12 -27 12 -45 0 -33 0 -33 -50
-33 -50 0 -50 0 -50 33 0 18 5 38 12 45 15 15 61 15 76 0z m249 -131 l28 -27
3 -300 3 -300 -25 0 -25 0 -3 285 c-3 257 -5 286 -21 302 -16 16 -40 18 -247
18 -207 0 -231 -2 -247 -18 -16 -16 -18 -45 -21 -302 l-3 -285 -25 0 -25 0 3
299 c3 283 4 300 23 321 11 12 29 26 40 31 11 4 131 7 267 6 l248 -2 27 -28z
m-477 -186 c0 -77 3 -142 8 -144 4 -3 88 28 187 68 l180 73 3 71 c3 62 5 71
22 71 34 0 40 -33 40 -209 l0 -171 -80 0 c-78 0 -80 -1 -80 -24 0 -32 -53 -76
-90 -76 -37 0 -90 44 -90 76 0 23 -2 24 -80 24 l-80 0 0 171 c0 177 6 209 40
209 19 0 20 -7 20 -139z m358 112 c-3 -26 -15 -33 -163 -95 -88 -37 -163 -67
-167 -67 -5 -1 -8 42 -8 94 l0 95 171 0 170 0 -3 -27z m2 -77 c0 -21 -17 -30
-162 -90 -90 -36 -166 -66 -170 -66 -5 0 -8 11 -8 24 0 21 17 30 158 89 86 36
163 66 170 66 6 1 12 -10 12 -23z m-270 -327 c15 -36 63 -69 100 -69 37 0 85
33 100 69 12 30 14 31 81 31 l69 0 0 -90 0 -90 -250 0 -250 0 0 90 0 90 69 0
c67 0 69 -1 81 -31z m488 -178 c8 -5 12 -22 10 -42 l-3 -34 -395 0 -395 0 -3
34 c-2 20 2 37 10 42 17 11 759 11 776 0z"/>
</g>
</svg>
