<?xml version="1.0" standalone="no"?>
<!DOCTYPE svg PUBLIC "-//W3C//DTD SVG 20010904//EN"
 "http://www.w3.org/TR/2001/REC-SVG-20010904/DTD/svg10.dtd">
<svg version="1.0" xmlns="http://www.w3.org/2000/svg"
 width="96.000000pt" height="96.000000pt" viewBox="0 0 96.000000 96.000000"
 preserveAspectRatio="xMidYMid meet">

<g transform="translate(0.000000,96.000000) scale(0.100000,-0.100000)"
fill="#000000" stroke="none">
<path d="M82 758 c-15 -15 -15 -61 0 -76 7 -7 24 -12 38 -12 14 0 31 5 38 12
15 15 15 61 0 76 -15 15 -61 15 -76 0z"/>
<path d="M308 749 c-24 -13 -23 -46 1 -59 12 -6 117 -10 271 -10 259 0 290 4
290 40 0 11 -9 24 -19 30 -26 13 -520 13 -543 -1z"/>
<path d="M82 518 c-15 -15 -15 -61 0 -76 7 -7 24 -12 38 -12 33 0 50 17 50 50
0 33 -17 50 -50 50 -14 0 -31 -5 -38 -12z"/>
<path d="M308 509 c-24 -13 -23 -46 1 -59 11 -5 61 -10 111 -10 82 0 95 3 124
25 17 13 47 31 66 39 33 14 26 15 -125 15 -91 0 -168 -4 -177 -10z"/>
<path d="M623 404 c-103 -61 -125 -206 -44 -298 46 -52 163 -73 225 -41 29 15
30 15 67 -21 67 -65 110 -22 45 45 -36 37 -36 38 -21 67 31 59 15 162 -34 218
-52 59 -166 74 -238 30z m183 -78 c30 -30 34 -40 34 -86 0 -46 -4 -56 -34 -86
-30 -30 -40 -34 -86 -34 -46 0 -56 4 -86 34 -30 30 -34 40 -34 86 0 46 4 56
34 86 30 30 40 34 86 34 46 0 56 -4 86 -34z"/>
<path d="M82 278 c-15 -15 -15 -61 0 -76 15 -15 61 -15 76 0 15 15 15 61 0 76
-15 15 -61 15 -76 0z"/>
<path d="M308 269 c-24 -13 -23 -46 1 -59 11 -5 45 -10 75 -10 l56 0 0 40 0
40 -57 0 c-32 0 -66 -5 -75 -11z"/>
</g>
</svg>
