<?xml version="1.0" standalone="no"?>
<!DOCTYPE svg PUBLIC "-//W3C//DTD SVG 20010904//EN"
 "http://www.w3.org/TR/2001/REC-SVG-20010904/DTD/svg10.dtd">
<svg version="1.0" xmlns="http://www.w3.org/2000/svg"
 width="96.000000pt" height="96.000000pt" viewBox="0 0 96.000000 96.000000"
 preserveAspectRatio="xMidYMid meet">

<g transform="translate(0.000000,96.000000) scale(0.100000,-0.100000)"
fill="#000000" stroke="none">
<path d="M187 813 c-41 -7 -93 -63 -100 -109 -9 -50 -9 -318 0 -368 8 -52 58
-101 112 -110 l41 -6 0 -53 c0 -59 20 -97 51 -97 11 0 64 33 117 74 l98 74
139 4 c151 4 175 11 212 66 16 24 18 50 18 232 0 224 -3 236 -63 277 -24 16
-54 18 -312 19 -157 1 -298 0 -313 -3z m615 -70 c16 -15 18 -35 18 -221 0
-177 -2 -208 -17 -224 -14 -16 -33 -18 -154 -18 l-138 0 -100 -75 c-56 -41
-103 -75 -106 -75 -3 0 -5 27 -5 59 0 74 -14 91 -77 91 -82 0 -83 2 -83 238 0
177 2 208 17 224 15 17 38 18 321 18 270 0 308 -2 324 -17z"/>
<path d="M303 613 c-18 -7 -16 -40 3 -47 20 -8 328 -8 348 0 21 8 21 40 0 48
-19 7 -333 7 -351 -1z"/>
<path d="M303 473 c-18 -7 -16 -40 3 -47 20 -8 248 -8 268 0 21 8 21 40 0 48
-19 7 -253 7 -271 -1z"/>
</g>
</svg>
