<?xml version="1.0" standalone="no"?>
<!DOCTYPE svg PUBLIC "-//W3C//DTD SVG 20010904//EN"
 "http://www.w3.org/TR/2001/REC-SVG-20010904/DTD/svg10.dtd">
<svg version="1.0" xmlns="http://www.w3.org/2000/svg"
 width="96.000000pt" height="96.000000pt" viewBox="0 0 96.000000 96.000000"
 preserveAspectRatio="xMidYMid meet">

<g transform="translate(0.000000,96.000000) scale(0.100000,-0.100000)"
fill="#000000" stroke="none">
<path d="M152 564 c-15 -11 -22 -25 -22 -50 0 -33 5 -37 166 -144 91 -61 174
-110 184 -110 20 0 317 192 338 218 28 37 0 102 -44 102 -7 0 -74 -40 -148
-90 -75 -49 -141 -90 -146 -90 -5 0 -71 41 -146 90 -74 50 -141 90 -148 90 -6
0 -22 -7 -34 -16z"/>
</g>
</svg>
