<?xml version="1.0" standalone="no"?>
<!DOCTYPE svg PUBLIC "-//W3C//DTD SVG 20010904//EN"
 "http://www.w3.org/TR/2001/REC-SVG-20010904/DTD/svg10.dtd">
<svg version="1.0" xmlns="http://www.w3.org/2000/svg"
 width="96.000000pt" height="96.000000pt" viewBox="0 0 96.000000 96.000000"
 preserveAspectRatio="xMidYMid meet">

<g transform="translate(0.000000,96.000000) scale(0.100000,-0.100000)"
fill="#000000" stroke="none">
<path d="M76 741 c-45 -46 -67 -75 -64 -87 6 -31 38 -28 73 6 l33 32 4 -205
c3 -225 5 -231 72 -281 25 -19 44 -21 238 -24 l210 -4 -32 41 -33 41 -177 0
c-153 0 -179 2 -191 17 -11 12 -15 65 -17 215 -2 109 1 198 6 198 4 0 21 -14
37 -30 32 -34 68 -37 73 -6 5 22 -123 156 -148 156 -9 0 -46 -31 -84 -69z"/>
<path d="M350 741 l33 -41 177 0 c153 0 179 -2 191 -17 11 -12 15 -65 17 -215
2 -109 -1 -198 -6 -198 -4 0 -21 14 -37 30 -32 34 -68 37 -73 6 -5 -22 123
-156 148 -156 25 0 153 134 148 156 -6 31 -38 28 -73 -6 l-33 -32 -4 205 c-3
225 -5 231 -72 281 -25 19 -44 21 -238 24 l-210 4 32 -41z"/>
</g>
</svg>
